<svg xmlns="http://www.w3.org/2000/svg" xmlns:xlink="http://www.w3.org/1999/xlink" width="6955pt" height="674pt" viewBox="0.00 0.00 6954.93 673.60">
<g id="graph0" class="graph" transform="scale(1 1) rotate(0) translate(4 669.6)">
<title>Smallholder_P2</title>
<polygon fill="white" stroke="none" points="-4,4 -4,-669.6 6950.93,-669.6 6950.93,4 -4,4"/>
<!-- H_PeasantProprietor -->
<g id="node1" class="node">
<title>H_PeasantProprietor</title>
<g id="a_node1"><a xlink:title="Smallholder categories (Pakistan bands): marginal/subsistence &lt;5 acres (~&lt;2 ha), small/semi-commercial 5–12.5 acres; medium 12.5–25 acres. Tenure: owner-operator; revenue via lambardar.">
<path fill="#fff3cd" stroke="#b58900" stroke-width="2" d="M3183.39,-36C3183.39,-36 2958.74,-36 2958.74,-36 2952.74,-36 2946.74,-30 2946.74,-24 2946.74,-24 2946.74,-12 2946.74,-12 2946.74,-6 2952.74,0 2958.74,0 2958.74,0 3183.39,0 3183.39,0 3189.39,0 3195.39,-6 3195.39,-12 3195.39,-12 3195.39,-24 3195.39,-24 3195.39,-30 3189.39,-36 3183.39,-36"/>
<text text-anchor="middle" x="3071.07" y="-13.8" font-family="Helvetica,sans-Serif" font-size="14.00">H • Peasant Proprietor (chak/village)</text>
</a>
</g>
</g>
<!-- H_Lambardar -->
<g id="node4" class="node">
<title>H_Lambardar</title>
<path fill="#e8dff5" stroke="#6c2eb9" stroke-width="2" d="M1147.12,-252.4C1147.12,-252.4 903.01,-252.4 903.01,-252.4 897.01,-252.4 891.01,-246.4 891.01,-240.4 891.01,-240.4 891.01,-228.4 891.01,-228.4 891.01,-222.4 897.01,-216.4 903.01,-216.4 903.01,-216.4 1147.12,-216.4 1147.12,-216.4 1153.12,-216.4 1159.12,-222.4 1159.12,-228.4 1159.12,-228.4 1159.12,-240.4 1159.12,-240.4 1159.12,-246.4 1153.12,-252.4 1147.12,-252.4"/>
<text text-anchor="middle" x="1025.07" y="-230.2" font-family="Helvetica,sans-Serif" font-size="14.00">H • Lambardar/Zaildar (village/pargana)</text>
</g>
<!-- H_PeasantProprietor&#45;&gt;H_Lambardar -->
<g id="edge12" class="edge">
<title>H_PeasantProprietor-&gt;H_Lambardar</title>
<g id="a_edge12"><a xlink:title="flow=revenue/tax | I=settlement &amp; revenue codes | K=post-Partition ledgers; assessment procedures | periodicity=annual | discretion=medium">
<path fill="none" stroke="#8c564b" stroke-width="2" stroke-dasharray="5,2" d="M2946.08,-26.86C2740.44,-40.27 2318.02,-69.87 1961.6,-108 1673.69,-138.8 1337.56,-186.75 1156.59,-213.55"/>
<polygon fill="#8c564b" stroke="#8c564b" stroke-width="2" points="1156.2,-210.07 1146.83,-215 1157.23,-216.99 1156.2,-210.07"/>
</a>
</g>
<text text-anchor="middle" x="2064.33" y="-112.2" font-family="Helvetica,sans-Serif" font-size="14.00">land revenue (collection channel)</text>
</g>
<!-- Note_SmallholderCats -->
<g id="node13" class="node">
<title>Note_SmallholderCats</title>
<g id="a_node13"><a xlink:title="Categories per skeleton summary (Pakistan census bands; &lt;2 ha comparability).">
<polygon fill="#f5f5f5" stroke="black" points="4052.99,-272 3781.14,-272 3781.14,-196.8 4058.99,-196.8 4058.99,-266 4052.99,-272"/>
<polyline fill="none" stroke="black" points="4052.99,-272 4052.99,-266"/>
<polyline fill="none" stroke="black" points="4058.99,-266 4052.99,-266"/>
<text text-anchor="middle" x="3920.07" y="-255.4" font-family="Helvetica,sans-Serif" font-size="14.00">Smallholder categories (skeleton):</text>
<text text-anchor="middle" x="3920.07" y="-238.6" font-family="Helvetica,sans-Serif" font-size="14.00">• Marginal/subsistence &lt;5 acres (~&lt;2 ha)</text>
<text text-anchor="middle" x="3920.07" y="-221.8" font-family="Helvetica,sans-Serif" font-size="14.00">• Small/semi-commercial 5–12.5 acres</text>
<text text-anchor="middle" x="3920.07" y="-205" font-family="Helvetica,sans-Serif" font-size="14.00">• Medium 12.5–25 acres</text>
</a>
</g>
</g>
<!-- H_PeasantProprietor&#45;&gt;Note_SmallholderCats -->
<!-- H_RefugeeSmallholder -->
<g id="node2" class="node">
<title>H_RefugeeSmallholder</title>
<g id="a_node2"><a xlink:title="Refugee allottees (Punjab): titles via Custodian/ Rehabilitation orders; typically in smallholder bands &lt;5–12.5 acres; revenue via lambardar; warabandi at outlet.">
<path fill="#fff3cd" stroke="#b58900" stroke-width="2" d="M615.1,-36C615.1,-36 255.03,-36 255.03,-36 249.03,-36 243.03,-30 243.03,-24 243.03,-24 243.03,-12 243.03,-12 243.03,-6 249.03,0 255.03,0 255.03,0 615.1,0 615.1,0 621.1,0 627.1,-6 627.1,-12 627.1,-12 627.1,-24 627.1,-24 627.1,-30 621.1,-36 615.1,-36"/>
<text text-anchor="middle" x="435.07" y="-13.8" font-family="Helvetica,sans-Serif" font-size="14.00">H • Refugee Smallholder (chak/village, evacuee allotment)</text>
</a>
</g>
</g>
<!-- H_RefugeeSmallholder&#45;&gt;H_Lambardar -->
<g id="edge13" class="edge">
<title>H_RefugeeSmallholder-&gt;H_Lambardar</title>
<g id="a_edge13"><a xlink:title="flow=revenue/tax | I=evacuee/rehabilitation orders; mutation entries | K=allotment records; revenue rolls | periodicity=annual | discretion=medium">
<path fill="none" stroke="#8c564b" stroke-width="2" stroke-dasharray="5,2" d="M503.25,-36.95C564.13,-53.54 655.4,-79.83 733.07,-108 819.98,-139.52 918.23,-183.51 975.73,-210.14"/>
<polygon fill="#8c564b" stroke="#8c564b" stroke-width="2" points="974.08,-213.23 984.62,-214.27 977.03,-206.88 974.08,-213.23"/>
</a>
</g>
<text text-anchor="middle" x="877.4" y="-112.2" font-family="Helvetica,sans-Serif" font-size="14.00">land revenue (evacuee allotment)</text>
</g>
<!-- H_RefugeeSmallholder&#45;&gt;H_Lambardar -->
<g id="edge19" class="edge">
<title>H_RefugeeSmallholder-&gt;H_Lambardar</title>
<g id="a_edge19"><a xlink:title="flow=revenue/tax (title regularization) | I=Custodian/ Rehabilitation mutation &amp; regularization | K=allotment &amp; settlement manuals | periodicity=annual | discretion=medium">
<path fill="none" stroke="#8c564b" stroke-width="2" stroke-dasharray="5,2" d="M242.16,-24.47C133.35,-34.47 29.68,-60.23 87.2,-124.8 138.78,-182.69 626.44,-214.33 877.39,-226.9"/>
<polygon fill="#8c564b" stroke="#8c564b" stroke-width="2" points="877.08,-230.39 887.24,-227.39 877.43,-223.4 877.08,-230.39"/>
</a>
</g>
<text text-anchor="middle" x="185.63" y="-112.2" font-family="Helvetica,sans-Serif" font-size="14.00">mutation &amp; regularization (titles)</text>
</g>
<!-- H_HariTenant -->
<g id="node3" class="node">
<title>H_HariTenant</title>
<g id="a_node3"><a xlink:title="Sindh tenancy persists: sharecropping (batai/adhi) ~50/50 with local cost-sharing; weak protections pre-1950; displacement pressures post-Partition.">
<path fill="#fff3cd" stroke="#b58900" stroke-width="2" d="M5781.42,-36C5781.42,-36 5472.71,-36 5472.71,-36 5466.71,-36 5460.71,-30 5460.71,-24 5460.71,-24 5460.71,-12 5460.71,-12 5460.71,-6 5466.71,0 5472.71,0 5472.71,0 5781.42,0 5781.42,0 5787.42,0 5793.42,-6 5793.42,-12 5793.42,-12 5793.42,-24 5793.42,-24 5793.42,-30 5787.42,-36 5781.42,-36"/>
<text text-anchor="middle" x="5627.07" y="-13.8" font-family="Helvetica,sans-Serif" font-size="14.00">H • Sharecropper (Hari) household (estate/village)</text>
</a>
</g>
</g>
<!-- H_Landlord -->
<g id="node5" class="node">
<title>H_Landlord</title>
<path fill="#e0e0e0" stroke="#4d4d4d" stroke-width="3" d="M5717.22,-252.4C5717.22,-252.4 5536.91,-252.4 5536.91,-252.4 5530.91,-252.4 5524.91,-246.4 5524.91,-240.4 5524.91,-240.4 5524.91,-228.4 5524.91,-228.4 5524.91,-222.4 5530.91,-216.4 5536.91,-216.4 5536.91,-216.4 5717.22,-216.4 5717.22,-216.4 5723.22,-216.4 5729.22,-222.4 5729.22,-228.4 5729.22,-228.4 5729.22,-240.4 5729.22,-240.4 5729.22,-246.4 5723.22,-252.4 5717.22,-252.4"/>
<path fill="none" stroke="#4d4d4d" stroke-width="3" d="M5721.22,-256.4C5721.22,-256.4 5532.91,-256.4 5532.91,-256.4 5526.91,-256.4 5520.91,-250.4 5520.91,-244.4 5520.91,-244.4 5520.91,-224.4 5520.91,-224.4 5520.91,-218.4 5526.91,-212.4 5532.91,-212.4 5532.91,-212.4 5721.22,-212.4 5721.22,-212.4 5727.22,-212.4 5733.22,-218.4 5733.22,-224.4 5733.22,-224.4 5733.22,-244.4 5733.22,-244.4 5733.22,-250.4 5727.22,-256.4 5721.22,-256.4"/>
<text text-anchor="middle" x="5627.07" y="-230.2" font-family="Helvetica,sans-Serif" font-size="14.00">H • Landlord/Wadera (estate)</text>
</g>
<!-- H_HariTenant&#45;&gt;H_Landlord -->
<g id="edge16" class="edge">
<title>H_HariTenant-&gt;H_Landlord</title>
<g id="a_edge16"><a xlink:title="flow=rent/share (crop) | I=customary tenancy (pre-1950); unsettled post-Partition | K=batai/adhi norms; cost-sharing conventions | periodicity=seasonal | discretion=high">
<path fill="none" stroke="#2ca02c" stroke-width="3" d="M5608.21,-36.69C5591.99,-53.31 5569.77,-79.79 5560.37,-108 5549.29,-141.27 5571.1,-176.28 5592.68,-200.82"/>
<polygon fill="#2ca02c" stroke="#2ca02c" stroke-width="3" points="5589.99,-203.07 5599.37,-208 5595.11,-198.29 5589.99,-203.07"/>
</a>
</g>
<text text-anchor="middle" x="5708.22" y="-112.2" font-family="Helvetica,sans-Serif" font-size="14.00">crop share (contested; displacement pressures)</text>
</g>
<!-- H_HariTenant&#45;&gt;H_Landlord -->
<g id="edge20" class="edge">
<title>H_HariTenant-&gt;H_Landlord</title>
<g id="a_edge20"><a xlink:title="flow=claims/authority | I=Hari Inquiry Committee recommendations (weak implementation) | K=petitions; inquiry records | periodicity=episodic | discretion=high">
<path fill="none" stroke="#7f7f7f" stroke-dasharray="1,5" d="M5732.62,-36.95C5808.26,-52.22 5900.72,-76.64 5924.07,-108 5977.18,-179.37 5849.83,-210.46 5745.64,-223.77"/>
<polygon fill="#7f7f7f" stroke="#7f7f7f" points="5745.35,-220.28 5735.86,-224.97 5746.21,-227.23 5745.35,-220.28"/>
</a>
</g>
<text text-anchor="middle" x="6088.14" y="-112.2" font-family="Helvetica,sans-Serif" font-size="14.00">claims/appeals (limited efficacy, 1948 Hari Inquiry)</text>
</g>
<!-- H_Lambardar&#45;&gt;H_PeasantProprietor -->
<g id="edge14" class="edge">
<title>H_Lambardar-&gt;H_PeasantProprietor</title>
<g id="a_edge14"><a xlink:title="flow=command/authority | I=canal offences; revenue recovery powers | K=administrative circulars | periodicity=episodic | discretion=high">
<path fill="none" stroke="#7f7f7f" stroke-width="2" stroke-dasharray="1,5" d="M1085.25,-215.43C1182.41,-187.24 1380.33,-133.25 1551.98,-108 2056.97,-33.7 2664.99,-20.86 2932.88,-19.03"/>
<polygon fill="#7f7f7f" stroke="#7f7f7f" stroke-width="2" points="2932.76,-22.53 2942.74,-18.96 2932.71,-15.53 2932.76,-22.53"/>
</a>
</g>
<text text-anchor="middle" x="1657.02" y="-112.2" font-family="Helvetica,sans-Serif" font-size="14.00">command/authority (enforcement)</text>
</g>
<!-- H_Lambardar&#45;&gt;H_RefugeeSmallholder -->
<g id="edge15" class="edge">
<title>H_Lambardar-&gt;H_RefugeeSmallholder</title>
<g id="a_edge15"><a xlink:title="flow=command/authority | I=rehabilitation rules; local executive orders | K=allotment terms | periodicity=episodic | discretion=high">
<path fill="none" stroke="#7f7f7f" stroke-width="2" stroke-dasharray="1,5" d="M890.37,-231.05C716.96,-224.84 429.99,-202.73 363.82,-124.8 342.15,-99.28 370.92,-67 398.12,-44.85"/>
<polygon fill="#7f7f7f" stroke="#7f7f7f" stroke-width="2" points="400.22,-47.65 405.96,-38.75 395.92,-42.12 400.22,-47.65"/>
</a>
</g>
<text text-anchor="middle" x="512.44" y="-112.2" font-family="Helvetica,sans-Serif" font-size="14.00">command/authority (enforcement over allottees)</text>
</g>
<!-- H_Landlord&#45;&gt;H_HariTenant -->
<g id="edge17" class="edge">
<title>H_Landlord-&gt;H_HariTenant</title>
<g id="a_edge17"><a xlink:title="flow=command/authority | I=refugee settlement interactions; weak tenant protections | K=estate orders; informal discipline | periodicity=episodic | discretion=high">
<path fill="none" stroke="#7f7f7f" stroke-width="3" stroke-dasharray="1,5" d="M5519.59,-218.68C5387.18,-198.21 5184.28,-157.95 5224.4,-108 5252.91,-72.49 5352.53,-50.3 5445.54,-36.95"/>
<polygon fill="#7f7f7f" stroke="#7f7f7f" stroke-width="3" points="5445.88,-40.44 5455.3,-35.59 5444.91,-33.5 5445.88,-40.44"/>
</a>
</g>
<text text-anchor="middle" x="5354.73" y="-112.2" font-family="Helvetica,sans-Serif" font-size="14.00">command/authority (eviction/replacement)</text>
</g>
<!-- T_Headworks -->
<g id="node6" class="node">
<title>T_Headworks</title>
<path fill="none" stroke="black" d="M1643.27,-665.6C1643.27,-665.6 1424.86,-665.6 1424.86,-665.6 1418.86,-665.6 1412.86,-659.6 1412.86,-653.6 1412.86,-653.6 1412.86,-641.6 1412.86,-641.6 1412.86,-635.6 1418.86,-629.6 1424.86,-629.6 1424.86,-629.6 1643.27,-629.6 1643.27,-629.6 1649.27,-629.6 1655.27,-635.6 1655.27,-641.6 1655.27,-641.6 1655.27,-653.6 1655.27,-653.6 1655.27,-659.6 1649.27,-665.6 1643.27,-665.6"/>
<text text-anchor="middle" x="1534.07" y="-643.4" font-family="Helvetica,sans-Serif" font-size="14.00">T • Headworks/Barrage (command)</text>
</g>
<!-- T_MainCanal -->
<g id="node7" class="node">
<title>T_MainCanal</title>
<path fill="none" stroke="black" d="M1655.33,-468.8C1655.33,-468.8 1412.8,-468.8 1412.8,-468.8 1406.8,-468.8 1400.8,-462.8 1400.8,-456.8 1400.8,-456.8 1400.8,-444.8 1400.8,-444.8 1400.8,-438.8 1406.8,-432.8 1412.8,-432.8 1412.8,-432.8 1655.33,-432.8 1655.33,-432.8 1661.33,-432.8 1667.33,-438.8 1667.33,-444.8 1667.33,-444.8 1667.33,-456.8 1667.33,-456.8 1667.33,-462.8 1661.33,-468.8 1655.33,-468.8"/>
<text text-anchor="middle" x="1534.07" y="-446.6" font-family="Helvetica,sans-Serif" font-size="14.00">T • Main canal (command→distributary)</text>
</g>
<!-- T_Headworks&#45;&gt;T_MainCanal -->
<g id="edge3" class="edge">
<title>T_Headworks-&gt;T_MainCanal</title>
<g id="a_edge3"><a xlink:title="flow=water | I=CDA 1873 ops; departmental rules | K=duty tables; rating curves | periodicity=in-season | discretion=low">
<path fill="none" stroke="#1f77b4" stroke-width="3" d="M1534.07,-629.31C1534.07,-596.53 1534.07,-524.91 1534.07,-483.36"/>
<polygon fill="#1f77b4" stroke="#1f77b4" stroke-width="3" points="1537.57,-483.59 1534.07,-473.59 1530.57,-483.59 1537.57,-483.59"/>
</a>
</g>
<text text-anchor="middle" x="1571.02" y="-545" font-family="Helvetica,sans-Serif" font-size="14.00">water (duty)</text>
</g>
<!-- T_Distributary -->
<g id="node8" class="node">
<title>T_Distributary</title>
<path fill="none" stroke="black" d="M2393.57,-468.8C2393.57,-468.8 2254.56,-468.8 2254.56,-468.8 2248.56,-468.8 2242.56,-462.8 2242.56,-456.8 2242.56,-456.8 2242.56,-444.8 2242.56,-444.8 2242.56,-438.8 2248.56,-432.8 2254.56,-432.8 2254.56,-432.8 2393.57,-432.8 2393.57,-432.8 2399.57,-432.8 2405.57,-438.8 2405.57,-444.8 2405.57,-444.8 2405.57,-456.8 2405.57,-456.8 2405.57,-462.8 2399.57,-468.8 2393.57,-468.8"/>
<text text-anchor="middle" x="2324.07" y="-446.6" font-family="Helvetica,sans-Serif" font-size="14.00">T • Distributary (minor)</text>
</g>
<!-- T_MainCanal&#45;&gt;T_Distributary -->
<g id="edge4" class="edge">
<title>T_MainCanal-&gt;T_Distributary</title>
<g id="a_edge4"><a xlink:title="flow=water | I=departmental distribution rules | K=canal design tables | periodicity=in-season | discretion=medium">
<path fill="none" stroke="#1f77b4" stroke-width="3" d="M1667.63,-450.8C1826.45,-450.8 2087.62,-450.8 2227.87,-450.8"/>
<polygon fill="#1f77b4" stroke="#1f77b4" stroke-width="3" points="2227.76,-454.3 2237.76,-450.8 2227.76,-447.3 2227.76,-454.3"/>
</a>
</g>
<text text-anchor="middle" x="1954.94" y="-458" font-family="Helvetica,sans-Serif" font-size="14.00">water</text>
</g>
<!-- T_Watercourse -->
<g id="node9" class="node">
<title>T_Watercourse</title>
<path fill="none" stroke="black" d="M3172.81,-468.8C3172.81,-468.8 2993.32,-468.8 2993.32,-468.8 2987.32,-468.8 2981.32,-462.8 2981.32,-456.8 2981.32,-456.8 2981.32,-444.8 2981.32,-444.8 2981.32,-438.8 2987.32,-432.8 2993.32,-432.8 2993.32,-432.8 3172.81,-432.8 3172.81,-432.8 3178.81,-432.8 3184.81,-438.8 3184.81,-444.8 3184.81,-444.8 3184.81,-456.8 3184.81,-456.8 3184.81,-462.8 3178.81,-468.8 3172.81,-468.8"/>
<text text-anchor="middle" x="3083.07" y="-446.6" font-family="Helvetica,sans-Serif" font-size="14.00">T • Watercourse/Outlet (khal)</text>
</g>
<!-- T_Distributary&#45;&gt;T_Watercourse -->
<g id="edge5" class="edge">
<title>T_Distributary-&gt;T_Watercourse</title>
<g id="a_edge5"><a xlink:title="flow=water | I=canal codes; outlet allocation | K=mogha sizing; roster inputs | periodicity=in-season | discretion=medium">
<path fill="none" stroke="#1f77b4" stroke-width="2" d="M2406.01,-450.8C2541.73,-450.8 2813.49,-450.8 2968.26,-450.8"/>
<polygon fill="#1f77b4" stroke="#1f77b4" stroke-width="2" points="2968,-454.3 2978,-450.8 2968,-447.3 2968,-454.3"/>
</a>
</g>
<text text-anchor="middle" x="2693.44" y="-458" font-family="Helvetica,sans-Serif" font-size="14.00">water</text>
</g>
<!-- T_Watercourse&#45;&gt;H_PeasantProprietor -->
<g id="edge6" class="edge">
<title>T_Watercourse-&gt;H_PeasantProprietor</title>
<g id="a_edge6"><a xlink:title="flow=water | I=canal codes; settlement records; roster enforcement | K=warabandi roster; local practice | periodicity=weekly/fortnightly | discretion=medium">
<path fill="none" stroke="#1f77b4" stroke-width="2" d="M3107.2,-432.46C3127.24,-416.45 3154.29,-390.68 3166.07,-360.8 3168.8,-353.85 3167.12,-351.39 3166.07,-344 3150.07,-232.25 3104.61,-105.27 3082.9,-48.8"/>
<polygon fill="#1f77b4" stroke="#1f77b4" stroke-width="2" points="3086.26,-47.8 3079.38,-39.74 3079.74,-50.33 3086.26,-47.8"/>
</a>
</g>
<text text-anchor="middle" x="3216.99" y="-230.2" font-family="Helvetica,sans-Serif" font-size="14.00">warabandi water turn</text>
</g>
<!-- T_Watercourse&#45;&gt;H_RefugeeSmallholder -->
<g id="edge7" class="edge">
<title>T_Watercourse-&gt;H_RefugeeSmallholder</title>
<g id="a_edge7"><a xlink:title="flow=water | I=Custodian/Rehabilitation allotment &amp; mutation orders | K=allotment rolls; settlement manuals | periodicity=weekly/fortnightly | discretion=medium">
<path fill="none" stroke="#1f77b4" stroke-width="2" d="M2980.88,-445.89C2562.73,-429.42 980.97,-362.31 489.49,-272 268.17,-231.33 139.07,-305.57 5.07,-124.8 -26.89,-81.7 103.84,-54.14 229.34,-38"/>
<polygon fill="#1f77b4" stroke="#1f77b4" stroke-width="2" points="229.76,-41.47 239.24,-36.75 228.88,-34.53 229.76,-41.47"/>
</a>
</g>
<text text-anchor="middle" x="618.28" y="-230.2" font-family="Helvetica,sans-Serif" font-size="14.00">warabandi water turn (evacuee allotment)</text>
</g>
<!-- T_Watercourse&#45;&gt;H_HariTenant -->
<g id="edge8" class="edge">
<title>T_Watercourse-&gt;H_HariTenant</title>
<g id="a_edge8"><a xlink:title="flow=water | I=weak tenancy protections; refugee settlement pressures | K=estate records; local rotation | periodicity=weekly/fortnightly | discretion=high">
<path fill="none" stroke="#1f77b4" stroke-width="2" d="M3185.09,-434.25C3382.06,-404.08 3828.35,-335.02 4203.07,-272 4693.85,-189.45 5278.27,-83.07 5517.14,-39.24"/>
<polygon fill="#1f77b4" stroke="#1f77b4" stroke-width="2" points="5517.44,-42.74 5526.65,-37.5 5516.18,-35.86 5517.44,-42.74"/>
</a>
</g>
<text text-anchor="middle" x="4767.6" y="-230.2" font-family="Helvetica,sans-Serif" font-size="14.00">warabandi water turn (mediated/unstable)</text>
</g>
<!-- T_LiftDevices -->
<g id="node10" class="node">
<title>T_LiftDevices</title>
<path fill="none" stroke="black" d="M2774.03,-252.4C2774.03,-252.4 2452.1,-252.4 2452.1,-252.4 2446.1,-252.4 2440.1,-246.4 2440.1,-240.4 2440.1,-240.4 2440.1,-228.4 2440.1,-228.4 2440.1,-222.4 2446.1,-216.4 2452.1,-216.4 2452.1,-216.4 2774.03,-216.4 2774.03,-216.4 2780.03,-216.4 2786.03,-222.4 2786.03,-228.4 2786.03,-228.4 2786.03,-240.4 2786.03,-240.4 2786.03,-246.4 2780.03,-252.4 2774.03,-252.4"/>
<text text-anchor="middle" x="2613.07" y="-230.2" font-family="Helvetica,sans-Serif" font-size="14.00">T • Lift devices/tubewells (expanding but still limited)</text>
</g>
<!-- T_Watercourse&#45;&gt;T_LiftDevices -->
<g id="edge9" class="edge">
<title>T_Watercourse-&gt;T_LiftDevices</title>
<g id="a_edge9"><a xlink:title="flow=water | I=ad hoc/private | K=Persian wheel; early public/private tubewells | periodicity=seasonal | discretion=high">
<path fill="none" stroke="#1f77b4" d="M3045,-432.44C2960.09,-393.7 2755.32,-300.29 2661.5,-257.49"/>
<polygon fill="#1f77b4" stroke="#1f77b4" points="2663.08,-254.37 2652.53,-253.4 2660.18,-260.74 2663.08,-254.37"/>
</a>
</g>
<text text-anchor="middle" x="2985.14" y="-348.2" font-family="Helvetica,sans-Serif" font-size="14.00">lifted water (expanding, still limited)</text>
</g>
<!-- T_LiftDevices&#45;&gt;H_PeasantProprietor -->
<g id="edge10" class="edge">
<title>T_LiftDevices-&gt;H_PeasantProprietor</title>
<g id="a_edge10"><a xlink:title="flow=water | I=private arrangement | K=custom devices; early pumps | periodicity=episodic | discretion=medium">
<path fill="none" stroke="#1f77b4" d="M2650.16,-216.04C2732.49,-177.5 2930.46,-84.82 3022.5,-41.73"/>
<polygon fill="#1f77b4" stroke="#1f77b4" points="3023.72,-45.03 3031.29,-37.62 3020.75,-38.69 3023.72,-45.03"/>
</a>
</g>
<text text-anchor="middle" x="2939.91" y="-112.2" font-family="Helvetica,sans-Serif" font-size="14.00">supplemental irrigation</text>
</g>
<!-- T_LiftDevices&#45;&gt;H_RefugeeSmallholder -->
<g id="edge11" class="edge">
<title>T_LiftDevices-&gt;H_RefugeeSmallholder</title>
<g id="a_edge11"><a xlink:title="flow=water | I=private arrangement | K=localized lift; pilot pump/tubewell schemes | periodicity=episodic | discretion=medium">
<path fill="none" stroke="#1f77b4" d="M2572.64,-215.93C2504.51,-187.42 2361.82,-131.7 2235.07,-108 1934.56,-51.81 1043.95,-29.54 639.27,-22.15"/>
<polygon fill="#1f77b4" stroke="#1f77b4" points="639.6,-18.66 629.54,-21.98 639.48,-25.66 639.6,-18.66"/>
</a>
</g>
<text text-anchor="middle" x="2434.94" y="-112.2" font-family="Helvetica,sans-Serif" font-size="14.00">supplemental irrigation (where available)</text>
</g>
<!-- E_IndusRiver -->
<g id="node11" class="node">
<title>E_IndusRiver</title>
<path fill="none" stroke="black" d="M825.71,-665.6C825.71,-665.6 624.42,-665.6 624.42,-665.6 618.42,-665.6 612.42,-659.6 612.42,-653.6 612.42,-653.6 612.42,-641.6 612.42,-641.6 612.42,-635.6 618.42,-629.6 624.42,-629.6 624.42,-629.6 825.71,-629.6 825.71,-629.6 831.71,-629.6 837.71,-635.6 837.71,-641.6 837.71,-641.6 837.71,-653.6 837.71,-653.6 837.71,-659.6 831.71,-665.6 825.71,-665.6"/>
<text text-anchor="middle" x="725.07" y="-643.4" font-family="Helvetica,sans-Serif" font-size="14.00">E • River Indus / alluvium (basin)</text>
</g>
<!-- E_IndusRiver&#45;&gt;T_Headworks -->
<g id="edge2" class="edge">
<title>E_IndusRiver-&gt;T_Headworks</title>
<g id="a_edge2"><a xlink:title="flow=water | I=CDA 1873 continuity; seasonal allocations | K=hydraulic duty; kharif/rabi norms | periodicity=seasonal | discretion=low">
<path fill="none" stroke="#1f77b4" stroke-width="3" d="M837.98,-647.6C984.72,-647.6 1240.72,-647.6 1398,-647.6"/>
<polygon fill="#1f77b4" stroke="#1f77b4" stroke-width="3" points="1397.9,-651.1 1407.9,-647.6 1397.9,-644.1 1397.9,-651.1"/>
</a>
</g>
<text text-anchor="middle" x="1125.29" y="-654.8" font-family="Helvetica,sans-Serif" font-size="14.00">water</text>
</g>
<!-- E_AridTracts -->
<g id="node12" class="node">
<title>E_AridTracts</title>
<path fill="none" stroke="black" d="M6934.93,-252.4C6934.93,-252.4 6707.2,-252.4 6707.2,-252.4 6701.2,-252.4 6695.2,-246.4 6695.2,-240.4 6695.2,-240.4 6695.2,-228.4 6695.2,-228.4 6695.2,-222.4 6701.2,-216.4 6707.2,-216.4 6707.2,-216.4 6934.93,-216.4 6934.93,-216.4 6940.93,-216.4 6946.93,-222.4 6946.93,-228.4 6946.93,-228.4 6946.93,-240.4 6946.93,-240.4 6946.93,-246.4 6940.93,-252.4 6934.93,-252.4"/>
<text text-anchor="middle" x="6821.07" y="-230.2" font-family="Helvetica,sans-Serif" font-size="14.00">E • Arid tracts / Cholistan (commons)</text>
</g>
<!-- E_AridTracts&#45;&gt;H_HariTenant -->
<g id="edge18" class="edge">
<title>E_AridTracts-&gt;H_HariTenant</title>
<g id="a_edge18"><a xlink:title="flow=spatial/exclusion | I=loss of cultivated plots; no formal claims | K=resort to commons; seasonal wage work | periodicity=episodic/seasonal | discretion=high">
<path fill="none" stroke="#bcbd22" stroke-dasharray="5,2" d="M6760.54,-215.97C6666.26,-189.37 6478.31,-138.52 6316.07,-108 6143.82,-75.6 5945.12,-51.31 5805.49,-36.36"/>
<polygon fill="#bcbd22" stroke="#bcbd22" points="5806.1,-32.9 5795.78,-35.32 5805.36,-39.86 5806.1,-32.9"/>
</a>
</g>
<text text-anchor="middle" x="6517.73" y="-112.2" font-family="Helvetica,sans-Serif" font-size="14.00">displacement to margins / seasonal coping</text>
</g>
</g>
</svg>